{"title":"Gullivers.Travels.2010.BDRip.XVID.AC3.HQ.Hive-CM8","uid":6236234,"size":1443791946,"categoryP":"video","categoryS":"movies","magnet":"?xt=urn:btih:3b352dbef76a4eca9e0d0571e30fd557235383bf&amp;dn=Gullivers.Travels.2010.BDRip.XVID.AC3.HQ.Hive-CM8&amp;tr=udp%3A%2F%2Ftracker.openbittorrent.com%3A80&amp;tr=udp%3A%2F%2Fopen.demonii.com%3A1337&amp;tr=udp%3A%2F%2Ftracker.coppersurfer.tk%3A6969&amp;tr=udp%3A%2F%2Fexodus.desync.com%3A6969","seeders":0,"leechers":1,"uploader":"sceneline","files":6,"time":1299882233,"description":"-\nhttp:// www . torrentkit. com        \nhttp:// www .torrentkit. com       the fast  and The Hottest Private Tracker on the net\n\nPlease Seed back to make the speed Faster!!!\n\nand don't forget to visit      ...... www .torrentkit .com..........\n-[img]http://img850.imageshack.us/img850/4554/gulliverstravels2011030.jpg[/img]\n\n[color=blue][size=5][b]Gullivers Travels 2010 BDRip XVID AC3 HQ Hive-CM8[/b][/size][/color]\n\n\n\n[b]Thx Hive\n\nCM8 Doing It Right The First Time :D\n\nWhy download a touched up rip of a rip BRrip\nGet the real deal BDRip\nEnjoy\n\nSource Bluray\n\nVideo: 720x304 @bitrate 1800 2pass\nAudio: DTS to AC3 5.1 @448\nSample: yes included\nSubs: yes english in srt /subs[/b]\n\n\n[url]http://www.imdb.com/title/tt1320261/[/url]\n\n\nGeneral\nComplete name                    : Gullivers.Travels.2010.BDRip.XVID.AC3.HQ.Hive-CM8.avi\nFormat                           : AVI\nFormat/Info                      : Audio Video Interleave\nFile size                        : 1.33 GiB\nDuration                         : 1h 24mn\nOverall bit rate                 : 2 256 Kbps\nWriting application              : Nandub v1.0rc2\nWriting library                  : Nandub build 1853/release\n\nVideo\nID                               : 0\nFormat                           : MPEG-4 Visual\nFormat profile                   : Advanced Simple@L5\nFormat settings, BVOP            : Yes\nFormat settings, QPel            : Yes\nFormat settings, GMC             : No warppoints\nFormat settings, Matrix          : Default (H.263)\nMuxing mode                      : Packed bitstream\nCodec ID                         : XVID\nCodec ID/Hint                    : XviD\nDuration                         : 1h 24mn\nBit rate                         : 1 799 Kbps\nWidth                            : 720 pixels\nHeight                           : 304 pixels\nDisplay aspect ratio             : 2.35:1\nFrame rate                       : 23.976 fps\nColor space                      : YUV\nChroma subsampling               : 4:2:0\nBit depth                        : 8 bits\nScan type                        : Progressive\nBits/(Pixel*Frame)               : 0.343\nStream size                      : 1.06 GiB (80%)\nWriting library                  : XviD 1.2.1 (UTC 2008-12-04)\n\nAudio\nID                               : 1\nFormat                           : AC-3\nFormat/Info                      : Audio Coding 3\nMode extension                   : CM (complete main)\nCodec ID                         : 2000\nDuration                         : 1h 24mn\nBit rate mode                    : Constant\nBit rate                         : 448 Kbps\nChannel(s)                       : 6 channels\nChannel positions                : Front: L C R, Side: L R, LFE\nSampling rate                    : 48.0 KHz\nBit depth                        : 16 bits\nStream size                      : 271 MiB (20%)\nAlignment                        : Split accross interleaves\nInterleave, duration             : 42 ms (1.00 video frame)\nInterleave, preload duration     : 500 ms\n\n\n\nJack Black ... Lemuel Gulliver\nJason Segel ... Horatio\nEmily Blunt ... Princess Mary\nAmanda Peet ... Darcy Silverman\nBilly Connolly ... King Theodore\nChris O'Dowd ... General Edward\nT.J. Miller ... Dan\nJames Corden ... Jinks\nCatherine Tate ... Queen Isabelle\nEmmanuel Quatra ... King Leopold\nOlly Alexander ... Prince August\n\n\n\nTravel writer Lemuel Gulliver takes an assignment in Bermuda, but ends up \non the island of Liliput, where he towers over its tiny citizens. \n\n\n\n[img]http://img855.imageshack.us/img855/441/ggugugugugguuu.png[/img]\n[img]http://img860.imageshack.us/img860/2557/gguguguguguu.png[/img]\n[img]http://img862.imageshack.us/img862/6070/gguguguguu.png[/img]\n[img]http://img694.imageshack.us/img694/7822/gguguguu.png[/img]\n[img]http://img24.imageshack.us/img24/7254/gguguu.png[/img]\n[img]http://img861.imageshack.us/img861/9779/gguu.png[/img]\n[img]http://img694.imageshack.us/img694/3861/47717845.png[/img]\n[img]http://img862.imageshack.us/img862/6092/ggugugugugugguuu.png[/img]\n[img]http://img195.imageshack.us/img195/8828/ggugugugugugugguuu.png[/img]\n\ncover:\n\n[img]http://img808.imageshack.us/img808/1039/gulliverstravels2010fro.jpg[/img]\n\n\n\n\nGreetz\n\niNK,LUSi,,MAGNET,CLASSiFiED,THC,LEGi0N,T0XiC,IMAGiNE,ViSiON,WBZ,FLAWL3SS,NOVA\nVik,Rapeseed,D2U,SAFC,goldadvance,MEMORY100,KaN1vE,Unevano,Pinnz,Wayne,Mr Hive\nand all P2P groups \nGreat Work Guys :D[/center]\n\n&lt;a class=&quot;__cf_email__&quot; href=&quot;/cdn-cgi/l/email-protection&quot; data-cfemail=&quot;3a7977027a524f4952575b535614595557&quot;&gt;[email&amp;#160;protected]&lt;/a&gt;&lt;script cf-hash='f9e31' type=&quot;text/javascript&quot;&gt;\n/* &lt;![CDATA[ */!function(){try{var t=&quot;currentScript&quot;in document?document.currentScript:function(){for(var t=document.getElementsByTagName(&quot;script&quot;),e=t.length;e--;)if(t[e].getAttribute(&quot;cf-hash&quot;))return t[e]}();if(t&amp;&amp;t.previousSibling){var e,r,n,i,c=t.previousSibling,a=c.getAttribute(&quot;data-cfemail&quot;);if(a){for(e=&quot;&quot;,r=parseInt(a.substr(0,2),16),n=2;a.length-n;n+=2)i=parseInt(a.substr(n,2),16)^r,e+=String.fromCharCode(i);e=document.createTextNode(e),c.parentNode.replaceChild(e,c)}}}catch(u){}}();/* ]]&gt; */&lt;/script&gt;","torrent":{"xt":"urn:btih:3b352dbef76a4eca9e0d0571e30fd557235383bf","amp;dn":"Gullivers.Travels.2010.BDRip.XVID.AC3.HQ.Hive-CM8","amp;tr":["udp%3A%2F%2Ftracker.openbittorrent.com%3A80","udp%3A%2F%2Fopen.demonii.com%3A1337","udp%3A%2F%2Ftracker.coppersurfer.tk%3A6969","udp%3A%2F%2Fexodus.desync.com%3A6969"],"infoHash":"3b352dbef76a4eca9e0d0571e30fd557235383bf","infoHashBuffer":{"type":"Buffer","data":[59,53,45,190,247,106,78,202,158,13,5,113,227,15,213,87,35,83,131,191]},"announce":[],"urlList":[]}}